<svg width="2500" height="2500" viewBox="0 0 2500 2500" fill="none" xmlns="http://www.w3.org/2000/svg">
<rect width="2500" height="2500" fill="#222831"/>
<g filter="url(#filter0_ddi_149_2)">
<path d="M1715.13 610.06C1750.87 601.165 1790.26 597.922 1832.3 604.47C1848.02 606.124 1864.77 608.827 1882.67 612.701C1887.26 613.693 1895.26 616.212 1905.09 620.199C1957.32 612.961 2006.34 616.428 2031.59 644.836C2047.65 662.9 2055.58 677.454 2056.82 689.098C2102.43 694.125 2158.95 706.391 2178.48 737.149C2199.88 770.845 2179.98 802.463 2152.48 829.971C2184.29 879.378 2197.09 936.748 2143.06 989.99C2139.06 993.932 2135.16 997.132 2131.35 999.652C2104.78 1025.56 2040.04 1041.81 2005.97 1012.71C1965.24 977.917 1968.86 927.361 1973.58 867.438C1943.94 849.252 1913.1 820.911 1897.79 806.15C1856.48 791.807 1804.46 787.102 1739.66 801.683C1739.66 801.683 1640.13 813.111 1610.5 976.212C1610.5 976.212 1581.71 1019.38 1651.36 1087.42C1686.51 1063.57 1778.3 1094.71 1807.71 1160.89C1811.73 1169.93 1816.83 1177.86 1822.78 1184.89C1863.61 1198.54 1897.19 1207.4 1916.69 1224.79C1954.74 1258.71 2000.25 1280.67 2008.35 1314.23C2029.11 1299.39 2057.04 1298.18 2090.35 1332.98C2214.52 1462.7 2033.47 1986.74 1767.05 1929.78C1733.14 1946.97 1698.35 1961.53 1664.1 1973.86C1741.34 2107.98 1335.6 2128.76 1224.52 2066.28C1219.02 2063.18 1213.85 2060.34 1209 2057.71C635.575 2076.61 795.871 1475.46 796.007 1474.95C796.054 1475.13 823.404 1579.17 875.025 1689.19C901.3 1745.19 921.287 1767.71 947.578 1780.86C1028.26 1774.69 1198.06 1697.7 1311.14 1800.45C1328.13 1815.88 1332.46 1830.94 1330 1844.58C1370.14 1841.16 1408.14 1833.98 1440.31 1822.25C1518.65 1793.68 1570.49 1793.21 1650.19 1756.38C1654.01 1744.68 1656.93 1730.95 1658.79 1714.77C1670.57 1612.08 1758.39 1464.6 1850.69 1519.01C1851.7 1476.63 1843.64 1436.14 1835.07 1405.71C1828.06 1398.51 1820.7 1391.32 1812.99 1384.24C1788.86 1373.95 1768.12 1369.87 1717.55 1378C1568.62 1401.93 1464.43 1345.02 1501.77 1268.02C1506.11 1259.05 1514.47 1253.03 1525.38 1249.27C1525.37 1249.26 1525.36 1249.25 1525.35 1249.25C1493.09 1237.36 1458.01 1210.76 1428.26 1155.9C1376.8 1061.01 1390.73 962.433 1411.71 898.849C1421.26 853.156 1444.79 799.756 1478.36 758.522C1487.16 721.709 1506.21 686.744 1548.36 659.082C1560.83 650.904 1630.57 605.137 1715.13 610.06Z" fill="#FFD369"/>
<path d="M704.214 390.001L702.821 401.232L641.894 892.611H1083.88L1145.12 398.771L1146.2 390.001H1402.68L1401.3 401.226L1256.42 1575.6L1255.34 1584.38H998.864L1000.24 1573.16L1061.18 1076.1H619.191L557.948 1575.59L556.871 1584.38H301.19L302.575 1573.15L447.45 398.776L448.532 390.001H704.214Z" fill="#222831" stroke="#FFD369" stroke-width="20"/>
</g>
<defs>
<filter id="filter0_ddi_149_2" x="229.881" y="320.001" width="2017.62" height="1840" filterUnits="userSpaceOnUse" color-interpolation-filters="sRGB">
<feFlood flood-opacity="0" result="BackgroundImageFix"/>
<feColorMatrix in="SourceAlpha" type="matrix" values="0 0 0 0 0 0 0 0 0 0 0 0 0 0 0 0 0 0 127 0" result="hardAlpha"/>
<feOffset dx="-10" dy="-10"/>
<feGaussianBlur stdDeviation="25"/>
<feComposite in2="hardAlpha" operator="out"/>
<feColorMatrix type="matrix" values="0 0 0 0 0.223529 0 0 0 0 0.243137 0 0 0 0 0.27451 0 0 0 0.5 0"/>
<feBlend mode="normal" in2="BackgroundImageFix" result="effect1_dropShadow_149_2"/>
<feColorMatrix in="SourceAlpha" type="matrix" values="0 0 0 0 0 0 0 0 0 0 0 0 0 0 0 0 0 0 127 0" result="hardAlpha"/>
<feOffset dx="10" dy="10"/>
<feGaussianBlur stdDeviation="25"/>
<feComposite in2="hardAlpha" operator="out"/>
<feColorMatrix type="matrix" values="0 0 0 0 0.223529 0 0 0 0 0.243137 0 0 0 0 0.27451 0 0 0 0.5 0"/>
<feBlend mode="normal" in2="effect1_dropShadow_149_2" result="effect2_dropShadow_149_2"/>
<feBlend mode="normal" in="SourceGraphic" in2="effect2_dropShadow_149_2" result="shape"/>
<feColorMatrix in="SourceAlpha" type="matrix" values="0 0 0 0 0 0 0 0 0 0 0 0 0 0 0 0 0 0 127 0" result="hardAlpha"/>
<feOffset dx="10" dy="10"/>
<feGaussianBlur stdDeviation="25"/>
<feComposite in2="hardAlpha" operator="arithmetic" k2="-1" k3="1"/>
<feColorMatrix type="matrix" values="0 0 0 0 0.933333 0 0 0 0 0.933333 0 0 0 0 0.933333 0 0 0 0.25 0"/>
<feBlend mode="normal" in2="shape" result="effect3_innerShadow_149_2"/>
</filter>
</defs>
</svg>
